<?xml version="1.0" encoding="UTF-8"?>
<svg id="Layer_1" xmlns="http://www.w3.org/2000/svg" version="1.1" viewBox="0 0 171.75 171.75">
  <!-- Generator: Adobe Illustrator 30.2.1, SVG Export Plug-In . SVG Version: 2.1.1 Build 1)  -->
  <defs>
    <style>
      .st0 {
        fill: #fcd519;
      }

      .st1 {
        fill: #f97b1c;
      }
    </style>
  </defs>
  <rect class="st1" width="171.75" height="171.75" rx="17.87" ry="17.87"/>
  <path class="st0" d="M138.1,106.9c.46.12.97.34,1.46.24.16.86,1.22.88,1.87,1.41,1.57,1.28,3.21,2.44,5.02,3.31.32,1.61-1.12,2.87-1.07,4.25.03.89.42,1.47.03,2.46-.59,1.49-1.4,2.31-2.56,3.35-.86.77-1.03,2.25-2.28,2.44-.13-.03-.35-.01-.48.02-.49-1.02-2.19-.69-4.52-2.4-.49-.36-1.02-.45-1.49-.46-.11,0-.21-.03-.32-.02.24-.73-.79-.49-1.25-.82l-9.82-6.96c-.82-.58-1.47-1.43-2.81-.67.78.73,1.41,2.29,2.57,2.72,4.03,1.48,2.1,3.27,4.26,4.99.26-.08.45-.36.56-.29.13.08.25.53.4.65,1.16.84,2.5,1.38,3.12,2.75.24.54.69.69,1.11.68,1.5,2.38,5.67,5.45,6.59,8.44.19.62.87,1.04.65,1.82-.12.42-.73.79-.97,1.32-1.32.22-5.32,1.36-4.38,3.7,1.46,3.6-3.11,1.17-6.21,3.67-.79.64-2.18.86-3.21.73-.58-.07-.41-1.24-.78-1.47-2.04-1.25-3.2-3.13-4.66-4.87s-3.01-3.28-4.43-5.11l-5.11-6.58c-1.7,2.06,1.93,7.06,2.61,8.49l1.75,3.7c.45.95.79,1.43,1.23,2.47l3.13,7.26c-2.88,1.76-5.79,3.24-8.06,5.57-2.6,2.67-3.22-.13-5.39.1-.34-.3-.82-.71-1.08-1.13-.45-1.38-.6-2.75-.36-4.55-3.36-.71-1.8-2.72-5.26-8.75-1.04-1.81-.92-4.11-2.39-5.81-.67.61-.77,1.53-.78,2.33l-.16,15.67c-.21.96-2.24,2.16-3.17,1.85-1.19-.39-2.89-.3-4.05-.36-.19-.01-.5.07-.67-.01-1.52-.92-3.72-.11-5.13,1.08-1.35-.03-2.5-.28-3.83-.52-.62-2.11-.78-4.21-.51-6.44.48-3.91.63-7.68.9-11.56.17-2.49.53-4.85.04-7.46-1.85,4.82-2.8,9.76-3.62,14.95-.17,1.08-.72,1.98-.6,2.95.07.56-.33,1.2-.17,1.77-1.72.57-1.18,7.26-5.39,6.01-.83-1.65-2.67-2.52-4.53-2.04l-2.34-.92c-1.41-.56-2.05,3.57-2.98,4.14-.65.4-1.51.12-2.11.11,0-.07-.03-.16,0-.22.3-.7-.53-.95-.88-1.43-.78-1.07.08-2.45.27-3.59l.6-3.76c.04-.24.01-.49.05-.73.38.11.45-.4.05-.39,0-.21.03-.43.02-.64.32.2.63-.35.73-.74,1.14-4.77,3.38-8.3,3.83-12.51l.07-.63c.52-.49.56-1.33.25-1.82-1.1.33-1.18,1.21-1.61,1.61-5.22,4.85-8.15,12.09-12.06,15.14-.54.42-1.28.34-1.77-.18-1.58-1.67-3.1-.61-3.52-1.37-.52-.93.42-3.59-1.38-3.91-.75-.13-1.24.64-2.32.72.29-1.01-2.36-4.21-3.25-4.62-.56-2.15,1.13-4.89,3.04-5.61l3.22-4.16c.35-.45.66-.82.53-1.31.2-.1.43-.28.6-.4,1.64-.22,2.39-1.6,3.25-3.01.21-.34,1.25-.27,1.53-.49s.45-1.21.15-1.41c-1.06-.68-1.92.65-2.84,1.05-.97.42-5.99,3.07-5.78,3.84l-.33.31c-1.39.49-2.71,1.24-4.04,2.14-1.09.26-1.91.86-2.81,1.18l-.73-.06c-.02-.37-.16-.69-.4-.82-1.07-.58-3.3.79-3.41-.04l-.5-3.87c-.11-.82-1.04-1.3-.68-2.41.22-.69.1-2.57-.62-2.71l-3.81-.76c-1.37-.28-.68-2.04-2-4.08-.62-.96,1.07-1.53,1.25-2.19.52-1.89,1.66-2.55,3.5-2.89,4.4-.82,8.35-2.85,12.37-4.76,1.83-.87,4.11-1.27,5.36-2.84.48-.61.39-1.51,1.73-1.5-1.97-.66-3.86-.07-5.91.04l-9.83.55c-1.57.09-3.41-.47-4.57.94-.64.77-1.62,1.39-2.51,1.32-.64-.06-2.19-.66-2-1.58.47-2.33-.81-4.17-.93-6.21-.15-2.64.51-5.04-.53-7.64-.58-1.43.46-2.63,1.23-3.48,1.05-1.14,1.96-2.75,3.75-2.23.95.28,1.86,1.18,2.99,1.27l4.39.34c-.75-.06,13.39-.68,13.69-1.25.13-.25-.28-.66-.59-.86l-10.92-6.91-2.08-1.15c-1.05-.58-2.16-.87-3.03-1.84-.6-.66-1.42-1.07-2.2-1.11-.09,0-.19,0-.28,0,.16-.87-.91-.81-1.58-.61-.37.11-.78.48-1.01.94l-.7.03c-1.86-1.36-2.5-3.62-3.18-5.97-.45-1.55,1.02-2.88,1.16-4.26.23-2.12.99-3.25,2.88-3.97.7-.27,1.56-1.57,2.71-1.34-.86-3.29,1.98-5.73,3.46-5.68.9.03,1.18.76,1.95,1.28l11.9,8.1c1.6,1.09,2.61,2.51,3.98,3.64s3.11,1.88,4.48,3.3c.88.92,2.74,1.72,3.77,1,.77-.54-.25-1.06-.58-1.45-.27-.33-.68-.17-1.25.02-.1-.83-1.61-.91-1.8-1.51-.32-1.02-1.21-1.54-1.77-2.25-1.34-1.69-2.32-3.42-4.26-4.61-.27-.59-.16-1.54-.33-2.25-1.76-1.3-3.22-2.76-4.48-4.54-.32-.44-1.17-.29-1.5-.67l-5.42-6.25c-.1-.86-.44-2.23-.28-3.09.35-1.81,2.59-2.4,4.12-2,.84.22.68-.97.8-1.35.53-1.66-.08-2.75-1.61-3.62,2.09-.16,6.05-2.32,6.15-4.33,1.92.33,3.13,2.42,4.15,3.98l3.31,5.08c1.48,2.27,6.35,11.59,8.97,12.09.24.05.44-.41.42-.67-.01-.17-.23-.61-.43-.68-1.15-.39-1-1.47-1.55-2.22-2.43-3.32-4.01-7.54-5.55-10.11l-1.5-2.51c-.73-1.23-1.71-2.27-1.97-3.79-.55-3.21,3.54-2.72,4.66-4.06.29-.34,1.65-4.13,4.04-3.62,2.22.47,4.73-.38,6.91-1.33,1.62,1.6,2.15,3.84,3.26,5.83l5.9,10.58c.53-4.99-.91-8.35-.93-13.49,0-2.36-.89-4.83-.04-7.11.7-1.89,5.9-.79,7.91-1.45,1.77-.58,3.62-1.3,5.43-.55,1.07.44,1.15,1.81,1.65,2.67s1.18,1.39,1.1,2.5c-.11,1.65.31,3.43-.05,5.06-.45,2.04-.28,3.82-.18,5.88.17,3.43-.79,6.85.22,10.46,1.78-3.33,1.91-6.67,3.23-9.83,1.56-3.72,2.95-7.39,3.7-11.18.1.02.23.01.33,0,1.03-.23,2.13.4,3.3.21.78-.12.9-1.2,1.69-1.67,6.56,1.66,3.24,3.64,5.97,4.64s3.99-1.51,5.71-.55c.65,2.22-.6,4.49-1.5,6.54-1.43,3.25-1.92,6.69-3.13,10l-3.54,9.65c-.12.32.91.21.96-.17.19-1.52,1.92-2.16,2.33-3.3.46-1.25,1.17-1.75,1.8-2.67,1.65-2.41,3.36-4.66,5.15-6.98.88-1.14,4.83-8.22,6.1-8.19,1.1.03,2.24,1.66,3.51,1.08.42-.2.48-1.1.82-1.22.42-.15,1.31-.28,1.49.17-.57,1.25-.86,2.08-.01,3,.78.85,1.36,1.45,2.57,1.09.2-.06.45.1.65.07.96,2.16,1.35.77,3.32,4.44.29.55,1.5,1.42.89,2.18-2.21,2.79-4.23,5.67-6.65,8.28-.4.43-6.85,8.23-6.58,9.1,3.8-1.67,6.02-4.77,9.93-7.25,3.13-1.99,4.26-4.8,5.95-3.91-.16-.08,6.7,6.31,6.56,6.25l1.45.6c.55.23.07,1.43.19,2.11.46,2.75,3.58,6.87,1.34,7.54-1.86.56-3.15,1.75-4.56,3.03-2.18,1.97-4.41,3.64-6.82,5.28-1.27.86-2.2,2.18-3.56,2.92-1.86,1.01-3.19,2.37-4.74,3.79-.53.49-1.76,1.23-1.23,2.03l9.16.34c4.43.16,8.85.28,13.29.08,1.3-.06,1.61-.07,2.74.76.77.57,2.96-.41,3.65.73s.19,3.13-.13,4.41c-.36,1.45.31,2.28.52,3.47s-.69,1.88-.05,6.46c.13.92-.27,2.19.11,3.02-2.03,1.83-4.47,1.69-6.87,1.16s-5.08.13-7.61-.21c-3.92-.53-7.7-.7-11.66-.75-2.23-.03-4.45-.89-6.76.07,2.4,2.16,15.33,9.32,16.92,9.72Z"/>
</svg>